<svg id="visual" viewBox="0 0 900 600" width="900" height="600" xmlns="http://www.w3.org/2000/svg" xmlns:xlink="http://www.w3.org/1999/xlink" version="1.1"><rect width="900" height="600" fill="#FFFFFF"></rect><g><g transform="translate(198 577)"><path d="M104.1 -34.4C116.9 5.4 96.6 55.3 59.8 81.9C23 108.6 -30.4 112 -65.5 87.3C-100.5 62.5 -117.1 9.5 -103.1 -31.9C-89.1 -73.4 -44.5 -103.4 0.6 -103.6C45.7 -103.7 91.4 -74.1 104.1 -34.4Z" fill="#715DF2"></path></g><g transform="translate(765 145)"><path d="M91.3 -33.4C101.4 1.3 80.9 42.2 48.5 65.4C16.2 88.5 -28 93.9 -56.1 74.2C-84.2 54.5 -96.2 9.7 -84.2 -27.7C-72.2 -65.1 -36.1 -95 2.3 -95.7C40.6 -96.4 81.2 -68 91.3 -33.4Z" fill="#715DF2"></path></g><g transform="translate(898 481)"><path d="M80.5 -26.3C93.6 14.4 86.3 61.5 57.5 83.4C28.8 105.3 -21.4 101.9 -52.3 78C-83.3 54.1 -95 9.7 -83.1 -29.3C-71.2 -68.2 -35.6 -101.8 -1 -101.5C33.7 -101.1 67.3 -67 80.5 -26.3Z" fill="#715DF2"></path></g></g></svg>