<svg id="visual" viewBox="0 0 900 600" width="900" height="600" xmlns="http://www.w3.org/2000/svg" xmlns:xlink="http://www.w3.org/1999/xlink" version="1.1"><path d="M0 199L82 199L82 163L164 163L164 193L245 193L245 151L327 151L327 193L409 193L409 247L491 247L491 115L573 115L573 193L655 193L655 181L736 181L736 253L818 253L818 127L900 127L900 235L900 0L900 0L818 0L818 0L736 0L736 0L655 0L655 0L573 0L573 0L491 0L491 0L409 0L409 0L327 0L327 0L245 0L245 0L164 0L164 0L82 0L82 0L0 0Z" fill="#fa7268"></path><path d="M0 301L82 301L82 301L164 301L164 259L245 259L245 283L327 283L327 265L409 265L409 313L491 313L491 181L573 181L573 295L655 295L655 265L736 265L736 319L818 319L818 253L900 253L900 343L900 233L900 125L818 125L818 251L736 251L736 179L655 179L655 191L573 191L573 113L491 113L491 245L409 245L409 191L327 191L327 149L245 149L245 191L164 191L164 161L82 161L82 197L0 197Z" fill="#ea5e66"></path><path d="M0 403L82 403L82 373L164 373L164 361L245 361L245 325L327 325L327 337L409 337L409 439L491 439L491 271L573 271L573 415L655 415L655 349L736 349L736 361L818 361L818 319L900 319L900 421L900 341L900 251L818 251L818 317L736 317L736 263L655 263L655 293L573 293L573 179L491 179L491 311L409 311L409 263L327 263L327 281L245 281L245 257L164 257L164 299L82 299L82 299L0 299Z" fill="#d84a64"></path><path d="M0 523L82 523L82 517L164 517L164 541L245 541L245 499L327 499L327 505L409 505L409 547L491 547L491 541L573 541L573 529L655 529L655 553L736 553L736 505L818 505L818 541L900 541L900 517L900 419L900 317L818 317L818 359L736 359L736 347L655 347L655 413L573 413L573 269L491 269L491 437L409 437L409 335L327 335L327 323L245 323L245 359L164 359L164 371L82 371L82 401L0 401Z" fill="#c53762"></path><path d="M0 601L82 601L82 601L164 601L164 601L245 601L245 601L327 601L327 601L409 601L409 601L491 601L491 601L573 601L573 601L655 601L655 601L736 601L736 601L818 601L818 601L900 601L900 601L900 515L900 539L818 539L818 503L736 503L736 551L655 551L655 527L573 527L573 539L491 539L491 545L409 545L409 503L327 503L327 497L245 497L245 539L164 539L164 515L82 515L82 521L0 521Z" fill="#b0235f"></path></svg>